<svg width="2437" height="1719" viewBox="0 0 2437 1719" fill="none" xmlns="http://www.w3.org/2000/svg">
<g clip-path="url(#clip0_102_2715)">
<g opacity="0.7">
<g opacity="0.6" filter="url(#filter0_f_102_2715)">
<ellipse cx="1064.29" cy="1053.22" rx="482.108" ry="321.683" fill="#308FFF" fill-opacity="0.9"/>
</g>
<g filter="url(#filter1_f_102_2715)">
<ellipse cx="919.033" cy="1247.85" rx="243.715" ry="370.555" transform="rotate(-85.3691 919.033 1247.85)" fill="url(#paint0_linear_102_2715)"/>
</g>
<mask id="mask0_102_2715" style="mask-type:alpha" maskUnits="userSpaceOnUse" x="230" y="823" width="1292" height="744">
<path d="M1521.18 1566.07L1360.69 876.8L714.965 823.587L495.466 849.438L230.269 1197.91L318.022 1496.8L984.344 1550.77L1521.18 1566.07Z" fill="url(#paint1_linear_102_2715)"/>
</mask>
<g mask="url(#mask0_102_2715)">
</g>
<mask id="mask1_102_2715" style="mask-type:alpha" maskUnits="userSpaceOnUse" x="6" y="758" width="1461" height="1092">
<path d="M6.65674 1737.5C41.3444 1316.77 85.6695 780.073 85.9155 759L1466.62 870.837L1387.36 1849.34L6.65674 1737.5Z" fill="url(#paint2_linear_102_2715)"/>
</mask>
<g mask="url(#mask1_102_2715)">
<path d="M788.63 916.309C918.959 926.866 1019.43 1048.12 1011.27 1148.86C1003.11 1249.61 939.647 1377.54 799.815 1366.22C730.521 1360.6 640.931 1421.13 562.668 1364.3C482.999 1306.44 513.185 1170.58 517.302 1119.76C525.462 1019.01 658.301 905.753 788.63 916.309Z" fill="url(#paint3_linear_102_2715)"/>
<g filter="url(#filter2_f_102_2715)">
<path d="M786.369 924.811C926.143 936.133 1018.35 1040.83 1011.34 1127.43C1004.32 1214.02 942.383 1323.39 802.608 1312.07C733.343 1306.46 644.37 1359.79 565.57 1310C485.355 1259.32 513.97 1142.75 517.508 1099.07C524.523 1012.47 646.594 913.49 786.369 924.811Z" fill="url(#paint4_linear_102_2715)"/>
</g>
<g filter="url(#filter3_f_102_2715)">
<path d="M790.603 925.156C947.264 937.845 1049.74 1066.01 1041.09 1172.78C1032.44 1279.54 961.984 1414.86 805.324 1402.17C727.691 1395.88 626.619 1472.34 538.691 1411.7C449.183 1349.98 456.391 1197.06 460.753 1143.21C469.401 1036.44 633.943 912.466 790.603 925.156Z" fill="url(#paint5_linear_102_2715)"/>
</g>
<g filter="url(#filter4_f_102_2715)">
<path d="M807.66 939.264C998.957 981.12 1147.96 1132.57 1137.83 1257.52C1127.71 1382.48 1018.6 1509.6 830.718 1494.39C737.612 1486.84 606.893 1613.34 501.317 1542.15C393.843 1469.69 337.271 1310.52 342.377 1247.49C352.498 1122.53 586.052 890.777 807.66 939.264Z" fill="url(#paint6_linear_102_2715)"/>
</g>
<g filter="url(#filter5_f_102_2715)">
<path d="M868.73 995.112C1071.03 1011.5 1232.15 1186.6 1222.25 1308.76C1212.36 1430.93 1095.96 1554.44 893.656 1538.05C793.406 1529.93 667.907 1566.7 553.73 1496.21C437.501 1424.46 189.877 1189.52 194.869 1127.9C203.047 1026.94 479.756 923.813 703.645 948.909C750.675 954.181 833.612 992.268 868.73 995.112Z" fill="url(#paint7_linear_102_2715)"/>
</g>
<g filter="url(#filter6_f_102_2715)">
<path d="M943.517 1050.25C1152.58 1067.19 1319.22 1246.43 1309.1 1371.38C1298.97 1496.33 1178.8 1622.57 969.738 1605.63C866.139 1597.24 736.487 1634.74 618.443 1562.54C498.278 1489.05 540.573 1320.94 545.679 1257.91C555.8 1132.96 734.458 1033.32 943.517 1050.25Z" fill="url(#paint8_linear_102_2715)"/>
</g>
<g filter="url(#filter7_f_102_2715)">
<path d="M787.886 1017.65C970.812 1032.46 1114.95 1209.88 1104.83 1334.83C1094.71 1459.79 988.19 1587.13 805.263 1572.31C714.614 1564.97 601.857 1589.29 499.198 1518.34C394.695 1446.12 433.428 1277.72 438.534 1214.69C448.655 1089.73 604.959 1002.83 787.886 1017.65Z" fill="url(#paint9_linear_102_2715)"/>
</g>
</g>
<g filter="url(#filter8_f_102_2715)">
<path d="M593.45 1368.96C581.221 1329.47 610.196 1240.65 647.692 1147.45L657.719 1023.66C666.441 915.975 835.374 959.036 972.767 1032.97C1110.16 1106.91 1106.8 1103.6 1094.71 1207.97C1082.63 1312.34 1156.29 1265.63 1238.27 1317.86C1320.25 1370.08 1147.6 1274.4 1044.61 1347.1C941.623 1419.8 1004.17 1440.72 862.596 1362.39C721.021 1284.07 724.189 1319.78 716.584 1357.66C708.979 1395.53 752.253 1399.04 744.892 1433.9C737.531 1468.76 719.903 1451.13 661.949 1427.18C603.994 1403.24 605.679 1408.44 593.45 1368.96Z" fill="#120ECF"/>
</g>
<mask id="mask2_102_2715" style="mask-type:alpha" maskUnits="userSpaceOnUse" x="369" y="713" width="755" height="1113">
<path d="M1030.58 713.663L369.581 936.721L403.744 1467.4L458.847 1644.86L839.507 1825.92L1123.69 1714.23L1087.58 1158.05L1030.58 713.663Z" fill="url(#paint10_linear_102_2715)"/>
</mask>
<g mask="url(#mask2_102_2715)">
<mask id="mask3_102_2715" style="mask-type:alpha" maskUnits="userSpaceOnUse" x="380" y="771" width="734" height="1038">
<path d="M1113.68 1764.98C799.515 1784.95 456.607 1806.62 441.028 1808.65L380.744 815.229L1053.39 771.555L1113.68 1764.98Z" fill="url(#paint11_linear_102_2715)"/>
</mask>
<g mask="url(#mask3_102_2715)">
<path d="M485.597 1402.92C478.534 1294.13 585.1 1195.36 685.963 1188.81C786.825 1182.26 922.049 1217.71 929.627 1334.43C933.382 1392.27 1005.37 1458.12 959.6 1530.09C913.013 1603.37 774.416 1596.39 723.535 1599.7C622.673 1606.25 492.66 1511.7 485.597 1402.92Z" fill="#02EFFE"/>
<g filter="url(#filter9_f_102_2715)">
<path d="M494.321 1403.66C486.746 1286.99 568.669 1197.82 646.976 1192.74C725.282 1187.65 830.903 1225 838.478 1341.67C842.232 1399.48 901.172 1466.15 866.637 1537.37C831.482 1609.88 723.649 1600.91 684.148 1603.48C605.841 1608.56 501.896 1520.33 494.321 1403.66Z" fill="#02EFFE"/>
</g>
<g filter="url(#filter10_f_102_2715)">
<path d="M494.092 1400.13C485.601 1269.36 587.377 1168.77 684.069 1162.5C780.761 1156.22 910.855 1197.32 919.345 1328.08C923.552 1392.88 1004.82 1466.62 961.667 1546.73C917.74 1628.29 776.529 1619.56 727.753 1622.73C631.061 1629 502.582 1530.89 494.092 1400.13Z" fill="#02EFFE"/>
</g>
<g filter="url(#filter11_f_102_2715)">
<path d="M524.69 1382.93C540.426 1219.78 670.378 1077.05 795.477 1068.93C920.575 1060.81 1061.13 1133.97 1071.32 1290.8C1076.36 1368.51 1219.19 1459.56 1162.89 1555.94C1105.58 1654.05 876.492 1659.57 813.386 1663.67C688.287 1671.79 506.46 1571.93 524.69 1382.93Z" fill="#02EFFE"/>
</g>
<g filter="url(#filter12_f_102_2715)">
<path d="M553.65 1338.59C542.686 1169.73 693.643 1001.83 815.953 993.888C938.263 985.947 1076.22 1065.59 1087.18 1234.45C1092.61 1318.13 1145.89 1416.7 1091.43 1520.08C1036 1625.31 785.598 1691.12 723.899 1695.13C601.589 1703.07 564.614 1507.45 553.65 1338.59Z" fill="#02EFFE"/>
</g>
<g filter="url(#filter13_f_102_2715)">
<path d="M597.421 1257.64C586.091 1083.13 741.19 922.202 866.289 914.079C991.388 905.957 1132.55 988.355 1143.88 1162.86C1149.49 1249.33 988.634 1389.44 933.008 1496.22C876.382 1604.92 704.219 1592.22 641.113 1596.32C516.014 1604.44 608.751 1432.14 597.421 1257.64Z" fill="#02EFFE"/>
</g>
<g filter="url(#filter14_f_102_2715)">
<path d="M586.05 1390.18C576.136 1237.49 732.454 1095.33 857.553 1087.21C982.652 1079.09 1123.07 1150.09 1132.98 1302.78C1137.9 1378.45 1177.14 1468.16 1120.68 1562.1C1063.21 1657.73 891.235 1648 828.129 1652.09C703.03 1660.22 595.964 1542.87 586.05 1390.18Z" fill="#02EFFE"/>
</g>
</g>
</g>
<mask id="mask4_102_2715" style="mask-type:alpha" maskUnits="userSpaceOnUse" x="206" y="586" width="1472" height="1273">
<path d="M1404.77 586.457C1493.14 885.692 1671.31 1487.79 1677 1502.31L478.813 1858.46L206.583 942.609L1404.77 586.457Z" fill="url(#paint12_linear_102_2715)"/>
</mask>
<g mask="url(#mask4_102_2715)">
<path d="M1161.57 1612.02C1028.22 1621.72 880.97 1578.85 852.426 1482.82C823.882 1386.79 841.129 1244.51 986.122 1201.41C1057.97 1180.05 1036.61 1116.54 1136.19 1138.98C1237.56 1161.83 1256.73 1298.68 1271.13 1347.12C1299.68 1443.15 1294.92 1602.31 1161.57 1612.02Z" fill="#308FFF"/>
<g filter="url(#filter15_f_102_2715)">
<path d="M1144.23 1611.03C919.872 1603.74 884.717 1585.15 860.182 1502.61C835.647 1420.06 858.131 1295.49 1003.07 1252.41C1074.89 1231.06 1053.81 1174.93 1151.36 1190.67C1250.66 1206.7 1265.07 1327.49 1277.45 1369.13C1301.98 1451.67 1256.68 1620.14 1144.23 1611.03Z" fill="#308FFF"/>
</g>
<g filter="url(#filter16_f_102_2715)">
<path d="M1156.35 1604.61C897.483 1627.41 754.795 1518.83 724.546 1417.07C694.297 1315.3 805.008 1218.64 967.451 1170.36C1047.95 1146.43 970.369 1082.26 1081.07 1104.5C1193.76 1127.15 1236.39 1288.44 1251.65 1339.77C1281.9 1441.54 1318.8 1556.33 1156.35 1604.61Z" fill="#308FFF"/>
</g>
<g filter="url(#filter17_f_102_2715)">
<path d="M1134.02 1598.13C906.122 1621.75 650.34 1542.74 614.937 1423.64C579.535 1304.54 713.402 1152.96 908.22 1095.05C1004.76 1066.35 938.788 944.684 1071.12 969.901C1205.82 995.571 1227.56 1165.9 1245.42 1225.99C1280.82 1345.09 1361.92 1574.52 1134.02 1598.13Z" fill="#308FFF"/>
</g>
<g filter="url(#filter18_f_102_2715)">
<path d="M962.693 1585.42C614.118 1557.19 607.889 1549.44 573.276 1432.99C538.663 1316.54 619.116 1141.23 828.884 1078.88C932.834 1047.98 964.497 1061.22 1105.24 1082.5C1248.5 1104.16 1269.67 1303 1287.14 1361.74C1321.75 1478.19 1164.84 1601.8 962.693 1585.42Z" fill="#308FFF"/>
</g>
<g filter="url(#filter19_f_102_2715)">
<path d="M956.664 1547.8C739.888 1612.23 506.615 1510.75 471.212 1391.65C435.81 1272.55 510.805 1110.12 727.581 1045.69C835.004 1013.76 1015.72 955.196 1160.98 976.57C1308.84 998.329 1198.21 1280 1216.07 1340.08C1251.47 1459.18 1173.44 1483.36 956.664 1547.8Z" fill="#308FFF"/>
</g>
<g filter="url(#filter20_f_102_2715)">
<path d="M1125.34 1518.27C935.66 1574.65 725.714 1466.24 690.311 1347.13C654.909 1228.03 715.746 1069.81 905.425 1013.43C999.421 985.494 925.092 973.107 1054.4 999.223C1186.02 1025.81 1208.46 1195.93 1226.32 1256.02C1261.72 1375.12 1315.02 1461.89 1125.34 1518.27Z" fill="#308FFF"/>
</g>
</g>
<g opacity="0.6" filter="url(#filter21_f_102_2715)">
<path d="M906.842 1058.7C1067.27 1071.7 1240.69 1231.4 1234.08 1313C1227.47 1394.6 1331.61 1590.02 948.168 1394.88C787.743 1381.89 584.772 1524.8 653.125 1265.94C659.734 1184.34 819.735 1287.7 906.842 1058.7Z" fill="url(#paint13_linear_102_2715)"/>
</g>
<mask id="mask5_102_2715" style="mask-type:alpha" maskUnits="userSpaceOnUse" x="864" y="32" width="1581" height="1786">
<path d="M2444.88 391.647L1456.66 32.5324L928.603 889.045L864.939 1164.2L1321.76 1748.77L1787.63 1817.17L2169.54 1058.31L2444.88 391.647Z" fill="url(#paint14_linear_102_2715)"/>
</mask>
<g mask="url(#mask5_102_2715)">
<mask id="mask6_102_2715" style="mask-type:alpha" maskUnits="userSpaceOnUse" x="843" y="79" width="1594" height="1708">
<path d="M1808.49 1786.09C1381.68 1578.39 865.267 1273.58 843.389 1264.48L1446.67 79.8487L2436.26 477.519L1808.49 1786.09Z" fill="url(#paint15_linear_102_2715)"/>
</mask>
<g mask="url(#mask6_102_2715)">
<path d="M1263.77 929.8C1325.76 806.621 1497.64 761.153 1604.99 813.238C1712.35 865.323 1828.15 983.538 1761.64 1115.7C1728.68 1181.19 1760.43 1295.53 1667.8 1347.4C1573.52 1400.2 1436.16 1311.15 1382 1284.88C1274.64 1232.8 1201.78 1052.98 1263.77 929.8Z" fill="#308FFF"/>
<g filter="url(#filter22_f_102_2715)">
<path d="M1272.23 935.736C1338.71 803.63 1479.26 754.19 1562.61 794.627C1645.96 835.064 1730.26 937.973 1663.77 1070.08C1630.83 1135.54 1648.71 1243.11 1568.06 1300.75C1485.96 1359.43 1381.35 1286.28 1339.3 1265.88C1255.95 1225.44 1205.74 1067.84 1272.23 935.736Z" fill="#308FFF"/>
</g>
<g filter="url(#filter23_f_102_2715)">
<path d="M1274.24 931.738C1348.75 783.673 1516.88 733.401 1619.8 783.332C1722.72 833.263 1829.67 954.653 1755.15 1102.72C1718.23 1176.09 1754.46 1304.51 1659.33 1366.82C1562.5 1430.25 1423.58 1337.74 1371.66 1312.56C1268.74 1262.62 1199.72 1079.8 1274.24 931.738Z" fill="#308FFF"/>
</g>
<g filter="url(#filter24_f_102_2715)">
<path d="M1316.48 930.901C1436.39 761.633 1660.16 681.799 1793.32 746.4C1926.47 811 2023.73 973.621 1934.36 1151.2C1890.07 1239.19 1978.27 1422.72 1859.35 1495.1C1738.29 1568.78 1500.4 1440.25 1433.22 1407.66C1300.07 1343.06 1177.58 1126.99 1316.48 930.901Z" fill="#308FFF"/>
</g>
<g filter="url(#filter25_f_102_2715)">
<path d="M1374.33 899.39C1470.55 708.189 1731.82 613.161 1862.01 676.321C1992.2 739.481 2082.66 907.665 1986.44 1098.87C1938.75 1193.62 1930.54 1332.76 1809.06 1413.88C1685.39 1496.46 1387.33 1421.37 1321.65 1389.51C1191.47 1326.35 1278.11 1090.59 1374.33 899.39Z" fill="#308FFF"/>
</g>
<g filter="url(#filter26_f_102_2715)">
<path d="M1470.62 836.529C1570.06 638.94 1831.14 553.967 1964.29 618.567C2097.45 683.168 2189.44 856.246 2090 1053.83C2040.72 1151.75 1787 1210.55 1662.15 1294.71C1535.05 1380.39 1367 1265.35 1299.83 1232.77C1166.67 1168.17 1371.18 1034.12 1470.62 836.529Z" fill="#308FFF"/>
</g>
</g>
</g>
<mask id="mask7_102_2715" style="mask-type:alpha" maskUnits="userSpaceOnUse" x="911" y="414" width="990" height="1265">
<path d="M1231.91 414.607C1519.39 506.963 1886.09 624.834 1900.76 628.307L1580.58 1678.74L911.732 1465.04L1231.91 414.607Z" fill="url(#paint16_linear_102_2715)"/>
</mask>
<g mask="url(#mask7_102_2715)">
<path d="M1634.27 1079.91C1598.16 1198.38 1464.79 1265.08 1372.45 1235.58C1280.1 1206.07 1173.52 1119.39 1212.27 992.277C1231.47 929.286 1193.05 833.079 1261.85 772.933C1331.88 711.707 1452.55 769.272 1499.14 784.156C1591.49 813.662 1670.39 961.432 1634.27 1079.91Z" fill="#02EFFE"/>
<g filter="url(#filter27_f_102_2715)">
<path d="M1626.8 1075.96C1588.07 1203.02 1471.81 1265.67 1392.43 1240.31C1313.05 1214.94 1223.49 1133.72 1262.22 1006.66C1281.41 943.693 1249.59 849.627 1311.92 787.449C1375.37 724.153 1478.36 776.06 1518.4 788.854C1597.78 814.216 1665.53 948.898 1626.8 1075.96Z" fill="#02EFFE"/>
</g>
<g filter="url(#filter28_f_102_2715)">
<path d="M1625.62 1079.81C1582.22 1222.22 1441.99 1289.26 1344.12 1258C1246.26 1226.73 1134.21 1131.96 1177.61 989.55C1199.12 918.978 1148.16 808.662 1222.45 740.388C1298.08 670.887 1433.91 735.585 1483.28 751.359C1581.15 782.627 1669.03 937.397 1625.62 1079.81Z" fill="#02EFFE"/>
</g>
<g filter="url(#filter29_f_102_2715)">
<path d="M1609.02 1092.54C1531.42 1260.7 1360.1 1365.79 1245.56 1329.19C1131.02 1292.6 1034.4 1163.79 1086.46 992.997C1112.26 908.36 1020.59 759.672 1108.28 677.34C1197.54 593.529 1346.66 666.716 1404.44 685.177C1518.98 721.773 1698.92 897.741 1609.02 1092.54Z" fill="#02EFFE"/>
</g>
<g filter="url(#filter30_f_102_2715)">
<path d="M1544.61 1136.97C1488.56 1320.87 1292.73 1432.04 1180.75 1396.26C1068.76 1360.48 976.987 1225.71 1033.04 1041.81C1060.82 950.679 1051.81 826.373 1140.58 735.918C1230.94 643.838 1376.03 717.699 1432.52 735.748C1544.51 771.528 1600.67 953.07 1544.61 1136.97Z" fill="#02EFFE"/>
</g>
<g filter="url(#filter31_f_102_2715)">
<path d="M1478.1 1194.26C1420.17 1384.31 1219.36 1499.69 1104.83 1463.1C990.287 1426.5 896.731 1287.64 954.658 1097.59C983.364 1003.42 974.505 875.104 1065.65 781.438C1158.43 686.089 1306.75 761.9 1364.53 780.361C1479.07 816.957 1536.02 1004.22 1478.1 1194.26Z" fill="#02EFFE"/>
</g>
<g filter="url(#filter32_f_102_2715)">
<path d="M1539.88 1057.14C1489.19 1223.43 1294.62 1318.37 1180.08 1281.77C1065.54 1245.18 968.205 1118.73 1018.89 952.436C1044.01 870.032 1044.04 760.243 1130.92 680.563C1219.36 599.452 1368.67 672.026 1426.45 690.486C1540.98 727.082 1590.56 890.856 1539.88 1057.14Z" fill="#02EFFE"/>
</g>
</g>
<mask id="mask8_102_2715" style="mask-type:alpha" maskUnits="userSpaceOnUse" x="1019" y="638" width="1184" height="910">
<path d="M2202.31 860.012C2131.85 1180.83 2054.81 1530.97 2052.38 1547.17L1019.97 1325.53L1169.91 638.371L2202.31 860.012Z" fill="url(#paint17_linear_102_2715)"/>
</mask>
<g mask="url(#mask8_102_2715)">
<path d="M1622.5 1368.07C1550.04 1352.83 1505.18 1266.44 1519.57 1200.48C1533.96 1134.52 1582.18 1054.13 1659.92 1070.48C1698.44 1078.58 1754.84 1044.33 1793.44 1086.8C1832.74 1130.04 1802.52 1217.77 1795.26 1251.05C1780.86 1317.01 1694.96 1383.31 1622.5 1368.07Z" fill="#308FFF"/>
<g filter="url(#filter33_f_102_2715)">
<path d="M1624.6 1362.6C1546.89 1346.26 1503.74 1277.44 1514.92 1226.23C1526.09 1175.02 1570.07 1113.98 1647.78 1130.33C1686.29 1138.43 1740.8 1112.7 1780.99 1147.82C1821.9 1183.58 1796.07 1251.19 1790.44 1277.03C1779.26 1328.24 1702.31 1378.95 1624.6 1362.6Z" fill="#308FFF"/>
</g>
<g filter="url(#filter34_f_102_2715)">
<path d="M1622.25 1362.11C1535.15 1343.79 1488.21 1260.14 1502.01 1196.91C1515.8 1133.68 1566.77 1057.61 1653.87 1075.93C1697.03 1085.01 1760.3 1046.23 1804.71 1088.5C1849.91 1131.53 1818.06 1220.63 1811.1 1252.52C1797.3 1315.76 1709.35 1380.42 1622.25 1362.11Z" fill="#308FFF"/>
</g>
<g filter="url(#filter35_f_102_2715)">
<path d="M1616.67 1339.33C1512.88 1299.57 1443.59 1190.17 1461.44 1108.36C1479.29 1026.55 1553.16 949.591 1657.62 971.562C1709.38 982.45 1795.38 907.283 1847.99 960.957C1901.54 1015.6 1862.74 1163.71 1853.73 1204.98C1835.88 1286.79 1736.91 1385.39 1616.67 1339.33Z" fill="#308FFF"/>
</g>
<g filter="url(#filter36_f_102_2715)">
<path d="M1593.03 1312.67C1480.56 1289.01 1398.7 1161.56 1416.15 1081.57C1433.6 1001.58 1511.24 927.477 1623.71 951.134C1679.44 962.857 1753.77 946.566 1811.3 1000.32C1869.86 1055.05 1866.54 1227.81 1857.74 1268.16C1840.29 1348.15 1705.5 1336.33 1593.03 1312.67Z" fill="#308FFF"/>
</g>
<g filter="url(#filter37_f_102_2715)">
<path d="M1548.19 1269.85C1431.96 1245.4 1355.42 1116.55 1373.27 1034.74C1391.12 952.929 1471.15 877.263 1587.38 901.71C1644.97 913.825 1706.82 1042.59 1766.36 1097.72C1826.97 1153.85 1786.79 1262.09 1777.79 1303.36C1759.94 1385.17 1664.41 1294.29 1548.19 1269.85Z" fill="#308FFF"/>
</g>
<g filter="url(#filter38_f_102_2715)">
<path d="M1632.77 1301.24C1531.07 1279.85 1467.04 1153.63 1484.89 1071.82C1502.74 990.013 1575.18 912.749 1676.88 934.141C1727.27 944.741 1793.21 935.85 1844.2 989.184C1896.1 1043.48 1857.9 1152.14 1848.89 1193.41C1831.04 1275.22 1734.47 1322.64 1632.77 1301.24Z" fill="#308FFF"/>
</g>
</g>
</g>
</g>
<defs>
<filter id="filter0_f_102_2715" x="170.18" y="319.539" width="1788.22" height="1467.37" filterUnits="userSpaceOnUse" color-interpolation-filters="sRGB">
<feFlood flood-opacity="0" result="BackgroundImageFix"/>
<feBlend mode="normal" in="SourceGraphic" in2="BackgroundImageFix" result="shape"/>
<feGaussianBlur stdDeviation="206" result="effect1_foregroundBlur_102_2715"/>
</filter>
<filter id="filter1_f_102_2715" x="449.154" y="903.067" width="939.758" height="689.559" filterUnits="userSpaceOnUse" color-interpolation-filters="sRGB">
<feFlood flood-opacity="0" result="BackgroundImageFix"/>
<feBlend mode="normal" in="SourceGraphic" in2="BackgroundImageFix" result="shape"/>
<feGaussianBlur stdDeviation="50" result="effect1_foregroundBlur_102_2715"/>
</filter>
<filter id="filter2_f_102_2715" x="505.678" y="919.922" width="510.035" height="415.511" filterUnits="userSpaceOnUse" color-interpolation-filters="sRGB">
<feFlood flood-opacity="0" result="BackgroundImageFix"/>
<feBlend mode="normal" in="SourceGraphic" in2="BackgroundImageFix" result="shape"/>
<feGaussianBlur stdDeviation="2" result="effect1_foregroundBlur_102_2715"/>
</filter>
<filter id="filter3_f_102_2715" x="444.497" y="910.256" width="611.099" height="538.976" filterUnits="userSpaceOnUse" color-interpolation-filters="sRGB">
<feFlood flood-opacity="0" result="BackgroundImageFix"/>
<feBlend mode="normal" in="SourceGraphic" in2="BackgroundImageFix" result="shape"/>
<feGaussianBlur stdDeviation="7" result="effect1_foregroundBlur_102_2715"/>
</filter>
<filter id="filter4_f_102_2715" x="322.059" y="912.696" width="836.262" height="671.266" filterUnits="userSpaceOnUse" color-interpolation-filters="sRGB">
<feFlood flood-opacity="0" result="BackgroundImageFix"/>
<feBlend mode="normal" in="SourceGraphic" in2="BackgroundImageFix" result="shape"/>
<feGaussianBlur stdDeviation="10" result="effect1_foregroundBlur_102_2715"/>
</filter>
<filter id="filter5_f_102_2715" x="140.795" y="891.093" width="1135.89" height="703.466" filterUnits="userSpaceOnUse" color-interpolation-filters="sRGB">
<feFlood flood-opacity="0" result="BackgroundImageFix"/>
<feBlend mode="normal" in="SourceGraphic" in2="BackgroundImageFix" result="shape"/>
<feGaussianBlur stdDeviation="27" result="effect1_foregroundBlur_102_2715"/>
</filter>
<filter id="filter6_f_102_2715" x="400.336" y="914.373" width="1043.2" height="827.689" filterUnits="userSpaceOnUse" color-interpolation-filters="sRGB">
<feFlood flood-opacity="0" result="BackgroundImageFix"/>
<feBlend mode="normal" in="SourceGraphic" in2="BackgroundImageFix" result="shape"/>
<feGaussianBlur stdDeviation="67" result="effect1_foregroundBlur_102_2715"/>
</filter>
<filter id="filter7_f_102_2715" x="365.326" y="954.003" width="802.01" height="681.486" filterUnits="userSpaceOnUse" color-interpolation-filters="sRGB">
<feFlood flood-opacity="0" result="BackgroundImageFix"/>
<feBlend mode="normal" in="SourceGraphic" in2="BackgroundImageFix" result="shape"/>
<feGaussianBlur stdDeviation="31" result="effect1_foregroundBlur_102_2715"/>
</filter>
<filter id="filter8_f_102_2715" x="522.611" y="890.834" width="805.073" height="630.659" filterUnits="userSpaceOnUse" color-interpolation-filters="sRGB">
<feFlood flood-opacity="0" result="BackgroundImageFix"/>
<feBlend mode="normal" in="SourceGraphic" in2="BackgroundImageFix" result="shape"/>
<feGaussianBlur stdDeviation="34" result="effect1_foregroundBlur_102_2715"/>
</filter>
<filter id="filter9_f_102_2715" x="489.833" y="1188.29" width="391.613" height="419.399" filterUnits="userSpaceOnUse" color-interpolation-filters="sRGB">
<feFlood flood-opacity="0" result="BackgroundImageFix"/>
<feBlend mode="normal" in="SourceGraphic" in2="BackgroundImageFix" result="shape"/>
<feGaussianBlur stdDeviation="2" result="effect1_foregroundBlur_102_2715"/>
</filter>
<filter id="filter10_f_102_2715" x="479.594" y="1147.88" width="508.664" height="489.126" filterUnits="userSpaceOnUse" color-interpolation-filters="sRGB">
<feFlood flood-opacity="0" result="BackgroundImageFix"/>
<feBlend mode="normal" in="SourceGraphic" in2="BackgroundImageFix" result="shape"/>
<feGaussianBlur stdDeviation="7" result="effect1_foregroundBlur_102_2715"/>
</filter>
<filter id="filter11_f_102_2715" x="503.419" y="1048.32" width="692.592" height="635.807" filterUnits="userSpaceOnUse" color-interpolation-filters="sRGB">
<feFlood flood-opacity="0" result="BackgroundImageFix"/>
<feBlend mode="normal" in="SourceGraphic" in2="BackgroundImageFix" result="shape"/>
<feGaussianBlur stdDeviation="10" result="effect1_foregroundBlur_102_2715"/>
</filter>
<filter id="filter12_f_102_2715" x="499.086" y="939.348" width="670.654" height="810.015" filterUnits="userSpaceOnUse" color-interpolation-filters="sRGB">
<feFlood flood-opacity="0" result="BackgroundImageFix"/>
<feBlend mode="normal" in="SourceGraphic" in2="BackgroundImageFix" result="shape"/>
<feGaussianBlur stdDeviation="27" result="effect1_foregroundBlur_102_2715"/>
</filter>
<filter id="filter13_f_102_2715" x="440.907" y="779.533" width="837.114" height="951.062" filterUnits="userSpaceOnUse" color-interpolation-filters="sRGB">
<feFlood flood-opacity="0" result="BackgroundImageFix"/>
<feBlend mode="normal" in="SourceGraphic" in2="BackgroundImageFix" result="shape"/>
<feGaussianBlur stdDeviation="67" result="effect1_foregroundBlur_102_2715"/>
</filter>
<filter id="filter14_f_102_2715" x="523.601" y="1024.59" width="689.224" height="689.904" filterUnits="userSpaceOnUse" color-interpolation-filters="sRGB">
<feFlood flood-opacity="0" result="BackgroundImageFix"/>
<feBlend mode="normal" in="SourceGraphic" in2="BackgroundImageFix" result="shape"/>
<feGaussianBlur stdDeviation="31" result="effect1_foregroundBlur_102_2715"/>
</filter>
<filter id="filter15_f_102_2715" x="847.619" y="1183.93" width="440.309" height="431.463" filterUnits="userSpaceOnUse" color-interpolation-filters="sRGB">
<feFlood flood-opacity="0" result="BackgroundImageFix"/>
<feBlend mode="normal" in="SourceGraphic" in2="BackgroundImageFix" result="shape"/>
<feGaussianBlur stdDeviation="2" result="effect1_foregroundBlur_102_2715"/>
</filter>
<filter id="filter16_f_102_2715" x="705.562" y="1085.89" width="586.459" height="535.784" filterUnits="userSpaceOnUse" color-interpolation-filters="sRGB">
<feFlood flood-opacity="0" result="BackgroundImageFix"/>
<feBlend mode="normal" in="SourceGraphic" in2="BackgroundImageFix" result="shape"/>
<feGaussianBlur stdDeviation="7" result="effect1_foregroundBlur_102_2715"/>
</filter>
<filter id="filter17_f_102_2715" x="589.254" y="946.484" width="719.542" height="675.826" filterUnits="userSpaceOnUse" color-interpolation-filters="sRGB">
<feFlood flood-opacity="0" result="BackgroundImageFix"/>
<feBlend mode="normal" in="SourceGraphic" in2="BackgroundImageFix" result="shape"/>
<feGaussianBlur stdDeviation="10" result="effect1_foregroundBlur_102_2715"/>
</filter>
<filter id="filter18_f_102_2715" x="511.515" y="1006.63" width="834.426" height="634.265" filterUnits="userSpaceOnUse" color-interpolation-filters="sRGB">
<feFlood flood-opacity="0" result="BackgroundImageFix"/>
<feBlend mode="normal" in="SourceGraphic" in2="BackgroundImageFix" result="shape"/>
<feGaussianBlur stdDeviation="27" result="effect1_foregroundBlur_102_2715"/>
</filter>
<filter id="filter19_f_102_2715" x="328.823" y="837.987" width="1044.35" height="863.839" filterUnits="userSpaceOnUse" color-interpolation-filters="sRGB">
<feFlood flood-opacity="0" result="BackgroundImageFix"/>
<feBlend mode="normal" in="SourceGraphic" in2="BackgroundImageFix" result="shape"/>
<feGaussianBlur stdDeviation="67" result="effect1_foregroundBlur_102_2715"/>
</filter>
<filter id="filter20_f_102_2715" x="618.738" y="922.87" width="704.485" height="672.749" filterUnits="userSpaceOnUse" color-interpolation-filters="sRGB">
<feFlood flood-opacity="0" result="BackgroundImageFix"/>
<feBlend mode="normal" in="SourceGraphic" in2="BackgroundImageFix" result="shape"/>
<feGaussianBlur stdDeviation="31" result="effect1_foregroundBlur_102_2715"/>
</filter>
<filter id="filter21_f_102_2715" x="555.502" y="974.703" width="770.727" height="588.09" filterUnits="userSpaceOnUse" color-interpolation-filters="sRGB">
<feFlood flood-opacity="0" result="BackgroundImageFix"/>
<feBlend mode="normal" in="SourceGraphic" in2="BackgroundImageFix" result="shape"/>
<feGaussianBlur stdDeviation="42" result="effect1_foregroundBlur_102_2715"/>
</filter>
<filter id="filter22_f_102_2715" x="1228.34" y="767.729" width="472.568" height="568.533" filterUnits="userSpaceOnUse" color-interpolation-filters="sRGB">
<feFlood flood-opacity="0" result="BackgroundImageFix"/>
<feBlend mode="normal" in="SourceGraphic" in2="BackgroundImageFix" result="shape"/>
<feGaussianBlur stdDeviation="6.58483" result="effect1_foregroundBlur_102_2715"/>
</filter>
<filter id="filter23_f_102_2715" x="1196.85" y="718.54" width="629.271" height="716.196" filterUnits="userSpaceOnUse" color-interpolation-filters="sRGB">
<feFlood flood-opacity="0" result="BackgroundImageFix"/>
<feBlend mode="normal" in="SourceGraphic" in2="BackgroundImageFix" result="shape"/>
<feGaussianBlur stdDeviation="23.0469" result="effect1_foregroundBlur_102_2715"/>
</filter>
<filter id="filter24_f_102_2715" x="1189.34" y="658.223" width="845.408" height="925.17" filterUnits="userSpaceOnUse" color-interpolation-filters="sRGB">
<feFlood flood-opacity="0" result="BackgroundImageFix"/>
<feBlend mode="normal" in="SourceGraphic" in2="BackgroundImageFix" result="shape"/>
<feGaussianBlur stdDeviation="32.9241" result="effect1_foregroundBlur_102_2715"/>
</filter>
<filter id="filter25_f_102_2715" x="1077.89" y="479.092" width="1126.54" height="1150.04" filterUnits="userSpaceOnUse" color-interpolation-filters="sRGB">
<feFlood flood-opacity="0" result="BackgroundImageFix"/>
<feBlend mode="normal" in="SourceGraphic" in2="BackgroundImageFix" result="shape"/>
<feGaussianBlur stdDeviation="88.8952" result="effect1_foregroundBlur_102_2715"/>
</filter>
<filter id="filter26_f_102_2715" x="814.961" y="156.07" width="1758.11" height="1610.93" filterUnits="userSpaceOnUse" color-interpolation-filters="sRGB">
<feFlood flood-opacity="0" result="BackgroundImageFix"/>
<feBlend mode="normal" in="SourceGraphic" in2="BackgroundImageFix" result="shape"/>
<feGaussianBlur stdDeviation="220.592" result="effect1_foregroundBlur_102_2715"/>
</filter>
<filter id="filter27_f_102_2715" x="1242.59" y="746.361" width="405.748" height="509.817" filterUnits="userSpaceOnUse" color-interpolation-filters="sRGB">
<feFlood flood-opacity="0" result="BackgroundImageFix"/>
<feBlend mode="normal" in="SourceGraphic" in2="BackgroundImageFix" result="shape"/>
<feGaussianBlur stdDeviation="5.15916" result="effect1_foregroundBlur_102_2715"/>
</filter>
<filter id="filter28_f_102_2715" x="1131.88" y="672.722" width="541.239" height="628.942" filterUnits="userSpaceOnUse" color-interpolation-filters="sRGB">
<feFlood flood-opacity="0" result="BackgroundImageFix"/>
<feBlend mode="normal" in="SourceGraphic" in2="BackgroundImageFix" result="shape"/>
<feGaussianBlur stdDeviation="18.0571" result="effect1_foregroundBlur_102_2715"/>
</filter>
<filter id="filter29_f_102_2715" x="1017.78" y="586.366" width="667.153" height="801.685" filterUnits="userSpaceOnUse" color-interpolation-filters="sRGB">
<feFlood flood-opacity="0" result="BackgroundImageFix"/>
<feBlend mode="normal" in="SourceGraphic" in2="BackgroundImageFix" result="shape"/>
<feGaussianBlur stdDeviation="25.7958" result="effect1_foregroundBlur_102_2715"/>
</filter>
<filter id="filter30_f_102_2715" x="876.804" y="551.33" width="829.08" height="990.904" filterUnits="userSpaceOnUse" color-interpolation-filters="sRGB">
<feFlood flood-opacity="0" result="BackgroundImageFix"/>
<feBlend mode="normal" in="SourceGraphic" in2="BackgroundImageFix" result="shape"/>
<feGaussianBlur stdDeviation="69.6486" result="effect1_foregroundBlur_102_2715"/>
</filter>
<filter id="filter31_f_102_2715" x="591.333" y="388.658" width="1255.35" height="1426.85" filterUnits="userSpaceOnUse" color-interpolation-filters="sRGB">
<feFlood flood-opacity="0" result="BackgroundImageFix"/>
<feBlend mode="normal" in="SourceGraphic" in2="BackgroundImageFix" result="shape"/>
<feGaussianBlur stdDeviation="172.832" result="effect1_foregroundBlur_102_2715"/>
</filter>
<filter id="filter32_f_102_2715" x="845.196" y="483.023" width="874.445" height="966.489" filterUnits="userSpaceOnUse" color-interpolation-filters="sRGB">
<feFlood flood-opacity="0" result="BackgroundImageFix"/>
<feBlend mode="normal" in="SourceGraphic" in2="BackgroundImageFix" result="shape"/>
<feGaussianBlur stdDeviation="79.9669" result="effect1_foregroundBlur_102_2715"/>
</filter>
<filter id="filter33_f_102_2715" x="1506.11" y="1120.57" width="304.613" height="252.217" filterUnits="userSpaceOnUse" color-interpolation-filters="sRGB">
<feFlood flood-opacity="0" result="BackgroundImageFix"/>
<feBlend mode="normal" in="SourceGraphic" in2="BackgroundImageFix" result="shape"/>
<feGaussianBlur stdDeviation="3.53048" result="effect1_foregroundBlur_102_2715"/>
</filter>
<filter id="filter34_f_102_2715" x="1474.91" y="1043.62" width="378.292" height="346.353" filterUnits="userSpaceOnUse" color-interpolation-filters="sRGB">
<feFlood flood-opacity="0" result="BackgroundImageFix"/>
<feBlend mode="normal" in="SourceGraphic" in2="BackgroundImageFix" result="shape"/>
<feGaussianBlur stdDeviation="12.3567" result="effect1_foregroundBlur_102_2715"/>
</filter>
<filter id="filter35_f_102_2715" x="1423.33" y="906.123" width="487.722" height="480.27" filterUnits="userSpaceOnUse" color-interpolation-filters="sRGB">
<feFlood flood-opacity="0" result="BackgroundImageFix"/>
<feBlend mode="normal" in="SourceGraphic" in2="BackgroundImageFix" result="shape"/>
<feGaussianBlur stdDeviation="17.6524" result="effect1_foregroundBlur_102_2715"/>
</filter>
<filter id="filter36_f_102_2715" x="1318.48" y="851.339" width="639.511" height="574.276" filterUnits="userSpaceOnUse" color-interpolation-filters="sRGB">
<feFlood flood-opacity="0" result="BackgroundImageFix"/>
<feBlend mode="normal" in="SourceGraphic" in2="BackgroundImageFix" result="shape"/>
<feGaussianBlur stdDeviation="47.6614" result="effect1_foregroundBlur_102_2715"/>
</filter>
<filter id="filter37_f_102_2715" x="1134.15" y="660.503" width="901.572" height="912.86" filterUnits="userSpaceOnUse" color-interpolation-filters="sRGB">
<feFlood flood-opacity="0" result="BackgroundImageFix"/>
<feBlend mode="normal" in="SourceGraphic" in2="BackgroundImageFix" result="shape"/>
<feGaussianBlur stdDeviation="118.271" result="effect1_foregroundBlur_102_2715"/>
</filter>
<filter id="filter38_f_102_2715" x="1372.47" y="821.087" width="607.866" height="594.727" filterUnits="userSpaceOnUse" color-interpolation-filters="sRGB">
<feFlood flood-opacity="0" result="BackgroundImageFix"/>
<feBlend mode="normal" in="SourceGraphic" in2="BackgroundImageFix" result="shape"/>
<feGaussianBlur stdDeviation="54.7224" result="effect1_foregroundBlur_102_2715"/>
</filter>
<linearGradient id="paint0_linear_102_2715" x1="919.033" y1="877.292" x2="919.033" y2="1618.4" gradientUnits="userSpaceOnUse">
<stop stop-color="#0239FE"/>
<stop offset="1" stop-color="#0285FE"/>
</linearGradient>
<linearGradient id="paint1_linear_102_2715" x1="764.266" y1="1181.17" x2="461.555" y2="1390.92" gradientUnits="userSpaceOnUse">
<stop stop-color="#C4C4C4"/>
<stop offset="1" stop-color="#C4C4C4" stop-opacity="0"/>
</linearGradient>
<linearGradient id="paint2_linear_102_2715" x1="650.636" y1="960.769" x2="619.278" y2="1655.66" gradientUnits="userSpaceOnUse">
<stop stop-color="#C4C4C4"/>
<stop offset="1" stop-color="#C4C4C4" stop-opacity="0"/>
</linearGradient>
<linearGradient id="paint3_linear_102_2715" x1="514.066" y1="1136.56" x2="1009.02" y2="1176.65" gradientUnits="userSpaceOnUse">
<stop stop-color="#0239FE"/>
<stop offset="1" stop-color="#0285FE"/>
</linearGradient>
<linearGradient id="paint4_linear_102_2715" x1="514.574" y1="1112.17" x2="1009.33" y2="1152.24" gradientUnits="userSpaceOnUse">
<stop stop-color="#0239FE"/>
<stop offset="1" stop-color="#0285FE"/>
</linearGradient>
<linearGradient id="paint5_linear_102_2715" x1="483.747" y1="1162.64" x2="1038.27" y2="1207.56" gradientUnits="userSpaceOnUse">
<stop stop-color="#0239FE"/>
<stop offset="1" stop-color="#0285FE"/>
</linearGradient>
<linearGradient id="paint6_linear_102_2715" x1="436.522" y1="1229.88" x2="1135.49" y2="1286.5" gradientUnits="userSpaceOnUse">
<stop stop-color="#0239FE"/>
<stop offset="1" stop-color="#0285FE"/>
</linearGradient>
<linearGradient id="paint7_linear_102_2715" x1="477.281" y1="1242.46" x2="1222.73" y2="1302.84" gradientUnits="userSpaceOnUse">
<stop stop-color="#0239FE"/>
<stop offset="1" stop-color="#0285FE"/>
</linearGradient>
<linearGradient id="paint8_linear_102_2715" x1="539.23" y1="1302.92" x2="1309.59" y2="1365.32" gradientUnits="userSpaceOnUse">
<stop stop-color="#0239FE"/>
<stop offset="1" stop-color="#0285FE"/>
</linearGradient>
<linearGradient id="paint9_linear_102_2715" x1="431.611" y1="1269.88" x2="1105.67" y2="1324.48" gradientUnits="userSpaceOnUse">
<stop stop-color="#0239FE"/>
<stop offset="1" stop-color="#0285FE"/>
</linearGradient>
<linearGradient id="paint10_linear_102_2715" x1="636.134" y1="1216.75" x2="688.569" y2="1571.36" gradientUnits="userSpaceOnUse">
<stop stop-color="#C4C4C4"/>
<stop offset="0.943414" stop-color="#C4C4C4" stop-opacity="0"/>
</linearGradient>
<linearGradient id="paint11_linear_102_2715" x1="603.371" y1="1396.8" x2="1018.63" y2="1413.31" gradientUnits="userSpaceOnUse">
<stop stop-color="#C4C4C4"/>
<stop offset="1" stop-color="#C4C4C4" stop-opacity="0"/>
</linearGradient>
<linearGradient id="paint12_linear_102_2715" x1="1159.66" y1="1596.13" x2="667.851" y2="1069.56" gradientUnits="userSpaceOnUse">
<stop stop-color="#C4C4C4"/>
<stop offset="1" stop-color="#C4C4C4" stop-opacity="0"/>
</linearGradient>
<linearGradient id="paint13_linear_102_2715" x1="653.125" y1="1265.95" x2="1234.08" y2="1313.01" gradientUnits="userSpaceOnUse">
<stop offset="0.213542" stop-color="#0073FB"/>
<stop offset="0.567708" stop-color="#65FFED"/>
<stop offset="0.9375" stop-color="#070059"/>
</linearGradient>
<linearGradient id="paint14_linear_102_2715" x1="1521.29" y1="793.496" x2="1323.7" y2="1302.18" gradientUnits="userSpaceOnUse">
<stop stop-color="#C4C4C4"/>
<stop offset="0.943414" stop-color="#C4C4C4" stop-opacity="0"/>
</linearGradient>
<linearGradient id="paint15_linear_102_2715" x1="1390.46" y1="988.831" x2="1911.54" y2="1333.2" gradientUnits="userSpaceOnUse">
<stop stop-color="#C4C4C4"/>
<stop offset="1" stop-color="#C4C4C4" stop-opacity="0"/>
</linearGradient>
<linearGradient id="paint16_linear_102_2715" x1="1660.93" y1="1033.64" x2="1180.79" y2="904.044" gradientUnits="userSpaceOnUse">
<stop stop-color="#C4C4C4"/>
<stop offset="1" stop-color="#C4C4C4" stop-opacity="0"/>
</linearGradient>
<linearGradient id="paint17_linear_102_2715" x1="1678.55" y1="1267.36" x2="1811.05" y2="854.053" gradientUnits="userSpaceOnUse">
<stop stop-color="#C4C4C4"/>
<stop offset="1" stop-color="#C4C4C4" stop-opacity="0"/>
</linearGradient>
<clipPath id="clip0_102_2715">
<rect width="2437" height="1719" fill="white"/>
</clipPath>
</defs>
</svg>
